<svg id="Layer_1" data-name="Layer 1" xmlns="http://www.w3.org/2000/svg" viewBox="0 0 131 148"><defs><style>.cls-1{fill:#008ccc;}.cls-2{fill:#cad0d1;}.cls-3{fill:#748489;}</style></defs><title>icon_everyone_required</title><path class="cls-1" d="M66,49.45c-0.34,0-.67,0-1,0V84h2V49.49C66.63,49.46,66.29,49.45,66,49.45Z"/><path class="cls-2" d="M19.82,0.62c-0.46,0-.92,0-1.36,0V18.2h1.73V0.62A1.89,1.89,0,0,0,19.82.62Z"/><path class="cls-2" d="M110.48,21.46c-0.46,0-.92,0-1.36,0V39h1.73V21.49A1.84,1.84,0,0,0,110.48,21.46Z"/><path class="cls-2" d="M19.82,27.45c-0.46,0-.92,0-1.36,0V42h1.73V27.49A1.84,1.84,0,0,0,19.82,27.45Z"/><path class="cls-2" d="M101.49,15.88c-0.46,0-.92,0-1.36,0V33.46h1.73V15.88A1.89,1.89,0,0,0,101.49,15.88Z"/><path class="cls-2" d="M101.49,0.41c-0.46,0-.92,0-1.36,0v9.73h1.73V0.41A3.41,3.41,0,0,0,101.49.41Z"/><path class="cls-2" d="M100.49,27.45c-0.46,0-.92,0-1.36,0V42h1.73V27.49A1.84,1.84,0,0,0,100.49,27.45Z"/><path class="cls-2" d="M28.32,15c-0.46,0-.92,0-1.36,0V29.53h1.73V15A1.84,1.84,0,0,0,28.32,15Z"/><path class="cls-2" d="M28.32,0.62c-0.46,0-.92,0-1.36,0V6.36h1.73V0.62A1.89,1.89,0,0,0,28.32.62Z"/><path class="cls-2" d="M59.15,0.62c-0.46,0-.92,0-1.36,0V4.36h1.73V0.62A1.89,1.89,0,0,0,59.15.62Z"/><path class="cls-2" d="M72.32,0.62c-0.46,0-.92,0-1.36,0V4.36h1.73V0.62A1.89,1.89,0,0,0,72.32.62Z"/><path class="cls-2" d="M93.49,0.62c-0.46,0-.92,0-1.36,0V16.53h1.73V0.62A1.89,1.89,0,0,0,93.49.62Z"/><path class="cls-2" d="M38.32,0.62c-0.46,0-.92,0-1.36,0V16.2h1.73V0.62A1.89,1.89,0,0,0,38.32.62Z"/><path class="cls-2" d="M49,0.62c-0.46,0-.92,0-1.36,0V9.53h1.73V0.62A1.89,1.89,0,0,0,49,.62Z"/><path class="cls-2" d="M83.32,0.62c-0.46,0-.92,0-1.36,0V9.53h1.73V0.62A1.89,1.89,0,0,0,83.32.62Z"/><path class="cls-2" d="M110.15,2.9c-0.46,0-.92,0-1.36,0V16.37h1.73V2.9A1.26,1.26,0,0,0,110.15,2.9Z"/><path class="cls-1" d="M66,7.13c-0.34,0-.67,0-1,0V12h2V7.17C66.63,7.14,66.29,7.13,66,7.13Z"/><path class="cls-1" d="M89.21,55C78,44.83,66.33,55,66.33,55S58,44.83,44,55c-10.38-10.12-22.13.25-22.13,0.25s1.5-43.87,44.5-43.87,44.13,43.88,44.13,43.88S100.46,44.83,89.21,55Zm-13-29.5H71V20.21H61.08v5.25H55.83v9.88h5.25v5.25H71V35.33h5.25V25.46Z"/><circle class="cls-3" cx="66.23" cy="106.08" r="5.9"/><path class="cls-3" d="M82.71,56.37l0,0,0,0H82.71Z"/><path class="cls-3" d="M44.74,75.38a8,8,0,0,0,8.07.52,11.86,11.86,0,0,0,4.53,1.17c-1-.28-1.57-2.1-1.83-3.36a8,8,0,1,0-13.95-2.6c-0.26,2.28-1.05,5.44-3.4,5.58C39.62,77.63,43.12,76.88,44.74,75.38Z"/><path class="cls-3" d="M106.68,96.34c-0.32-1.27-3.28-14.53-4.28-15.9h0c-0.44-.79-1.93-2.8-5.89-2.8s-20.18-.21-20.18-0.21-5-.21-6.25,3.54a27.19,27.19,0,0,0-.92,4.09L69,83.3a3,3,0,0,0-5.74-1c-0.58,1.06-.49,3.81-0.14,6.87-0.23-.78-0.45-1.61-0.64-2.5a8.75,8.75,0,0,0-5.53-6.09,21.5,21.5,0,0,0-8.41-1.77,21.07,21.07,0,0,0-8.43,1.55,10.09,10.09,0,0,0-6,4.81s-0.6,1.18-2.38,8.36a33.63,33.63,0,0,1-1,3.27s-3.41,7.78-4.9,10.26-1.45,4.52-.61,5.62a2.23,2.23,0,0,0,3.17.12C30.67,110,37,98.1,37,98.1s0.76-2.91,1.57-5.76A4.92,4.92,0,0,0,40,93.92l-7.46,27.62a37.09,37.09,0,0,0,5.62.67c0,1.82,0,4.67,0,4.67s-4.55,11.07-5.21,12.72-1.24,4.16,1.3,5.17a3.28,3.28,0,0,0,4.17-1.4s5.36-9.71,6.52-12.52A30.79,30.79,0,0,0,46.57,122s1.18,0,1.18,0l0.36,20.64a3.57,3.57,0,0,0,3.75,3.45c3.2,0.1,3.21-4.26,3.21-4.26l0.81-10.1a2.47,2.47,0,0,1-2.33-2.37s0.09-4.31.53-7.5a14.46,14.46,0,0,1,2.55-6.09,8.84,8.84,0,0,1,4.09-3.22l-0.53-2.39A7.11,7.11,0,0,1,59.05,105c-0.91-4.08-1.83-8.12-2.53-11.11a3.93,3.93,0,0,0,1-2.49c0.5,1.81.92,3.45,1.32,4.66,0.59,1.82,1.32,3.73,1.32,3.73a3.58,3.58,0,0,0,.82,1.31,7.24,7.24,0,0,1,11,.56,6.12,6.12,0,0,0,1.17-2.25c0.37-.67,2.41-8.65,2.41-8.65l0.07,8.35v16.4l0.17,0.24a14.43,14.43,0,0,1,2.55,6.09c0.44,3.19.53,7.46,0.53,7.5a2.5,2.5,0,0,1-2.62,2.4h-0.1a3.73,3.73,0,0,1-.52,0v8.77s-0.11,4.51,3.58,4.64c3,0.1,3.85-2.33,4-4s2.17-24.45,2.14-25.37c-0.05-1.76,2.08-2.08,2.08.21s2.19,25.82,2.19,25.82a3.69,3.69,0,0,0,3.79,3.37c3.39-.06,3.86-2.24,4-4.83,0-.83-0.07-34.83-0.07-34.83V98.76l0.3-9.39c1.07,3,2.86,8.31,3,10.85,0.17,3.59.37,13.2,0.37,13.2a2.39,2.39,0,0,0,2.62,2.41c2,0,2.32-1.67,2.44-2.8S107.21,98.41,106.68,96.34Z"/><circle class="cls-3" cx="85.87" cy="66.41" r="8.95"/><path class="cls-3" d="M69.43,113.48c3.36,0,5.28,3.05,5.28,3.05A13.09,13.09,0,0,1,77,122c0.42,3,.52,7.19.52,7.31a1.13,1.13,0,0,1-1.28,1,1.23,1.23,0,0,1-1.5-1c-0.07-.44-0.54-5.52-0.84-6.35a11.93,11.93,0,0,0-2-3.67l-0.07,8.12s0.07,15.76,0,16.19c-0.12,1.41-.67,2.47-2.37,2.44-1.31,0-1.59-1.7-1.59-1.7s-1.12-10.42-1.12-11.59c0,0,0-.86-0.59-0.86s-0.53.86-.53,0.86c0,1.17-1.12,11.59-1.12,11.59S64.27,146,63,146.06c-1.7,0-2.26-1-2.38-2.44,0-.42,0-16.19,0-16.19l-0.07-8.12a11.9,11.9,0,0,0-2,3.67c-0.3.84-.77,5.91-0.84,6.35a1.23,1.23,0,0,1-1.5,1,1.13,1.13,0,0,1-1.28-1c0-.12.1-4.28,0.52-7.31a13.1,13.1,0,0,1,2.32-5.49s1.92-3.05,5.28-3.05h6.4Z"/></svg>