<svg id="Layer_1" data-name="Layer 1" xmlns="http://www.w3.org/2000/svg" viewBox="0 0 124 75"><defs><style>.cls-1{fill:#a4916b;}.cls-2,.cls-3,.cls-5,.cls-6{fill:none;}.cls-2{stroke:#fff;}.cls-2,.cls-3,.cls-6,.cls-8{stroke-linecap:round;}.cls-2,.cls-4,.cls-5,.cls-6,.cls-7{stroke-miterlimit:10;}.cls-2,.cls-3,.cls-4,.cls-5,.cls-6,.cls-7,.cls-8{stroke-width:1.75px;}.cls-3,.cls-4,.cls-5,.cls-6,.cls-7,.cls-8{stroke:#27387d;}.cls-3,.cls-8{stroke-linejoin:round;}.cls-4,.cls-8{fill:#6cb2e2;}.cls-7,.cls-9{fill:#27387d;}.cls-9{opacity:0.15;}</style></defs><title>Icons-artboards</title><path class="cls-1" d="M113.52,51a7.57,7.57,0,0,0-4.58,1.16c-1.63-8.81-4.7-18.15-9.77-18.94-.3,0,0-.94-.34-.8l-1.52,2-1.72-1V70.3h18.68a9.33,9.33,0,0,0,8.92-9.59A9.67,9.67,0,0,0,113.52,51Z"/><path class="cls-1" d="M26,41.71A11.82,11.82,0,0,0,22,41a12,12,0,0,0-12,12c0,.1,0,.2,0,.3A8.14,8.14,0,1,0,8.24,69.36l.21,0H26Z"/><line class="cls-2" x1="94.92" y1="56.84" x2="109.77" y2="56.84"/><line class="cls-2" x1="98.7" y1="53.07" x2="98.7" y2="70.31"/><line class="cls-2" x1="102.82" y1="53.07" x2="102.82" y2="70.31"/><line class="cls-2" x1="106.93" y1="53.07" x2="106.93" y2="70.31"/><line class="cls-2" x1="26.53" y1="56.84" x2="11.68" y2="56.84"/><line class="cls-2" x1="22.75" y1="53.07" x2="22.75" y2="70.31"/><line class="cls-2" x1="18.63" y1="53.07" x2="18.63" y2="70.31"/><line class="cls-2" x1="14.52" y1="53.07" x2="14.52" y2="70.31"/><path class="cls-3" d="M94.77,24.58V9.52a.73.73,0,0,0-.71-.76H87.19a.73.73,0,0,0-.71.76v7.91"/><rect class="cls-4" x="34.35" y="42.79" width="11.23" height="15.39" rx="0.85" ry="0.85" transform="translate(79.94 100.97) rotate(-180)"/><line class="cls-4" x1="45.5" y1="50.49" x2="34.43" y2="50.49"/><rect class="cls-5" x="32.46" y="58.18" width="15.02" height="4.79" rx="1.07" ry="1.07" transform="translate(79.94 121.15) rotate(-180)"/><polyline class="cls-3" points="26.71 37.52 26.71 70.97 53.54 70.97"/><polyline class="cls-3" points="68.66 8.55 33.21 8.55 23.51 37.52 53.32 37.52"/><rect class="cls-4" x="70.25" y="19.84" width="7.52" height="8.2" rx="0.85" ry="0.85" transform="translate(148.02 47.88) rotate(-180)"/><rect class="cls-5" x="67.57" y="28.12" width="12.89" height="4.44" rx="1.07" ry="1.07" transform="translate(148.02 60.68) rotate(-180)"/><rect class="cls-5" x="64.63" y="67.23" width="18.76" height="6" rx="1.07" ry="1.07" transform="translate(148.02 140.46) rotate(-180)"/><rect class="cls-4" x="66.87" y="42.82" width="14.29" height="24.42" rx="0.96" ry="0.96"/><line class="cls-6" x1="78.32" y1="54.86" x2="78.32" y2="55.26"/><polygon class="cls-3" points="54.05 73.27 54.05 28.73 74.51 6.42 94.7 28.73 94.7 73.27 54.05 73.27"/><line class="cls-7" x1="58.18" y1="54.42" x2="53.33" y2="54.42"/><line class="cls-7" x1="64.65" y1="54.42" x2="59.8" y2="54.42"/><line class="cls-7" x1="61.41" y1="51.14" x2="56.56" y2="51.14"/><line class="cls-7" x1="61.41" y1="57.71" x2="56.56" y2="57.71"/><line class="cls-7" x1="89.02" y1="33.93" x2="93.88" y2="33.93"/><line class="cls-7" x1="89.02" y1="40.49" x2="93.88" y2="40.49"/><line class="cls-7" x1="85.79" y1="37.21" x2="90.64" y2="37.21"/><polygon class="cls-8" points="74.19 1.27 100.62 30.47 96.91 33.74 74.19 8.73 51.16 33.69 47.41 30.47 74.19 1.27"/><polygon class="cls-9" points="67.38 8.59 33.32 8.59 23.56 38 27.01 38 27.01 70.87 53.9 70.87 53.9 73.16 74.1 73.16 74.1 1.71 67.38 8.59"/></svg>